<svg xmlns="http://www.w3.org/2000/svg" viewBox="0 0 640 640" role="img" aria-labelledby="title desc">
  <title id="title">飞书</title>
  <desc id="desc">由青绿色、蓝色与深蓝色曲面组成的飞书标志。</desc>
  <rect width="640" height="640" fill="#fff"/>
  <path
    fill="#08cbb8"
    d="M166 124c-6 0-9 7-4 12 72 62 132 130 180 194 32-34 69-65 112-85-7-40-27-84-57-115-4-4-10-6-17-6H166z"
  />
  <path
    fill="#3472f7"
    d="M87 247c0-7 8-10 13-5 86 84 184 143 281 173 43 13 87-1 126-35-28 55-72 97-132 120-93 36-194 12-276-35-8-5-12-12-12-21V247z"
  />
  <path
    fill="#1d4196"
    d="M276 375c48-27 88-67 127-103 47-43 102-47 173-21-30 31-51 66-68 102-18 39-42 59-78 64-45 7-98-12-154-42z"
  />
</svg>
